<svg width="204" height="92" viewBox="0 0 204 92" fill="none" xmlns="http://www.w3.org/2000/svg">
<path id="Vector 1" d="M204 43.2355L197.172 27.3177L186.801 41.19L204 43.2355ZM3.44026 91.4191C3.71404 90.4783 4.00185 89.5279 4.30379 88.569L1.44228 87.668C1.13383 88.6476 0.839674 89.6189 0.559743 90.5809L3.44026 91.4191ZM6.23405 82.864C6.90489 81.0094 7.62592 79.1328 8.3976 77.2414L5.6199 76.1081C4.83295 78.0369 4.09746 79.9511 3.41294 81.8435L6.23405 82.864ZM10.7834 71.7097C11.6051 69.9034 12.4723 68.0906 13.3853 66.2772L10.7058 64.928C9.77475 66.7772 8.89052 68.6257 8.0527 70.4674L10.7834 71.7097ZM16.2005 60.9535C17.1668 59.2117 18.1759 57.4752 19.2281 55.7494L16.6667 54.1876C15.5926 55.9492 14.5629 57.7212 13.5771 59.4981L16.2005 60.9535ZM22.4691 50.6779C23.5797 49.0192 24.7316 47.376 25.9251 45.7534L23.5085 43.9758C22.2881 45.635 21.1108 47.3144 19.9763 49.0088L22.4691 50.6779ZM29.5982 40.9927C30.855 39.4401 32.1523 37.9123 33.4904 36.4143L31.2531 34.4158C29.8816 35.951 28.5529 37.5159 27.2664 39.1052L29.5982 40.9927ZM37.6034 32.0388C39.0078 30.6199 40.4525 29.2349 41.9375 27.8883L39.9223 25.6659C38.3962 27.0498 36.9126 28.4722 35.4712 29.9283L37.6034 32.0388ZM46.4918 23.9867C48.0412 22.7345 49.6303 21.5245 51.2595 20.3611L49.5162 17.9197C47.8372 19.1186 46.2006 20.3647 44.6061 21.6534L46.4918 23.9867ZM56.2352 17.0357C57.9201 15.9845 59.6444 14.9828 61.4081 14.0351L59.9881 11.3924C58.1661 12.3715 56.3859 13.4057 54.6472 14.4904L56.2352 17.0357ZM66.764 11.3822C68.566 10.5635 70.4063 9.80034 72.2851 9.09662L71.2329 6.28722C69.2894 7.01515 67.3862 7.80444 65.5231 8.65084L66.764 11.3822ZM77.9518 7.19343C79.8453 6.62913 81.7757 6.12424 83.743 5.68244L83.0856 2.75534C81.0508 3.21229 79.054 3.73457 77.095 4.31837L77.9518 7.19343ZM89.618 4.57122C91.5575 4.27178 93.531 4.03258 95.5388 3.85685L95.2772 0.868272C93.2039 1.04974 91.165 1.29684 89.1603 1.60635L89.618 4.57122ZM101.504 3.52693C103.471 3.48042 105.47 3.4938 107.5 3.56985L107.613 0.571956C105.522 0.493637 103.462 0.479803 101.433 0.527763L101.504 3.52693ZM113.506 3.97144C115.45 4.1577 117.421 4.40044 119.42 4.70191L119.867 1.73546C117.815 1.42602 115.79 1.17662 113.792 0.98512L113.506 3.97144ZM125.327 5.74941C127.271 6.14521 129.242 6.59572 131.237 7.10288L131.976 4.19533C129.935 3.67652 127.918 3.21523 125.925 2.80966L125.327 5.74941ZM136.97 8.69681C138.86 9.26662 140.771 9.88644 142.705 10.5578L143.689 7.72386C141.717 7.03916 139.766 6.40654 137.837 5.82456L136.97 8.69681ZM148.366 12.6486C150.194 13.3632 152.041 14.1233 153.906 14.93L155.097 12.1764C153.2 11.3559 151.32 10.5824 149.459 9.85454L148.366 12.6486ZM159.46 17.4442C161.226 18.2793 163.009 19.1555 164.808 20.0739L166.172 17.4019C164.347 16.47 162.537 15.5803 160.742 14.7321L159.46 17.4442ZM170.223 22.9393C171.934 23.8766 173.659 24.8514 175.399 25.8647L176.909 23.2724C175.147 22.2461 173.398 21.2583 171.664 20.3082L170.223 22.9393ZM180.661 29.0206C182.324 30.0461 183.999 31.1061 185.687 32.2015L187.32 29.6849C185.613 28.5773 183.919 27.505 182.236 26.4673L180.661 29.0206ZM190.781 35.5886C192.407 36.6953 194.044 37.8342 195.693 39.0061L197.431 36.5609C195.766 35.3775 194.112 34.2269 192.47 33.1087L190.781 35.5886Z" fill="#66A661"/>
</svg>
