<svg width="97" height="37" viewBox="0 0 97 37" fill="none" xmlns="http://www.w3.org/2000/svg">
<path d="M2.88 18.168C2.544 18.168 2.28 18.072 2.088 17.88C1.896 17.688 1.8 17.408 1.8 17.04V7.248C1.8 6.88 1.896 6.608 2.088 6.432C2.28 6.24 2.544 6.144 2.88 6.144C3.216 6.144 3.472 6.24 3.648 6.432C3.84 6.608 3.936 6.88 3.936 7.248V9.288L3.672 8.856C3.976 7.976 4.464 7.296 5.136 6.816C5.824 6.336 6.64 6.096 7.584 6.096C8.576 6.096 9.376 6.336 9.984 6.816C10.592 7.28 11 7.992 11.208 8.952H10.872C11.16 8.072 11.672 7.376 12.408 6.864C13.16 6.352 14.032 6.096 15.024 6.096C15.904 6.096 16.624 6.272 17.184 6.624C17.76 6.96 18.192 7.472 18.48 8.16C18.768 8.832 18.912 9.696 18.912 10.752V17.04C18.912 17.408 18.816 17.688 18.624 17.88C18.432 18.072 18.168 18.168 17.832 18.168C17.48 18.168 17.208 18.072 17.016 17.88C16.824 17.688 16.728 17.408 16.728 17.04V10.848C16.728 9.824 16.552 9.072 16.2 8.592C15.848 8.112 15.256 7.872 14.424 7.872C13.512 7.872 12.784 8.192 12.24 8.832C11.712 9.456 11.448 10.32 11.448 11.424V17.04C11.448 17.408 11.352 17.688 11.16 17.88C10.984 18.072 10.72 18.168 10.368 18.168C10.016 18.168 9.744 18.072 9.552 17.88C9.36 17.688 9.264 17.408 9.264 17.04V10.848C9.264 9.824 9.088 9.072 8.736 8.592C8.384 8.112 7.792 7.872 6.96 7.872C6.048 7.872 5.32 8.192 4.776 8.832C4.248 9.456 3.984 10.32 3.984 11.424V17.04C3.984 17.792 3.616 18.168 2.88 18.168ZM23.5039 18.12C23.1679 18.12 22.9039 18.016 22.7119 17.808C22.5199 17.6 22.4239 17.312 22.4239 16.944V7.368C22.4239 6.984 22.5199 6.696 22.7119 6.504C22.9039 6.296 23.1679 6.192 23.5039 6.192C23.8559 6.192 24.1279 6.296 24.3199 6.504C24.5119 6.696 24.6079 6.984 24.6079 7.368V16.944C24.6079 17.312 24.5119 17.6 24.3199 17.808C24.1439 18.016 23.8719 18.12 23.5039 18.12ZM23.5039 3.6C23.0719 3.6 22.7279 3.488 22.4719 3.264C22.2319 3.024 22.1119 2.712 22.1119 2.328C22.1119 1.912 22.2319 1.6 22.4719 1.392C22.7279 1.168 23.0719 1.056 23.5039 1.056C23.9679 1.056 24.3119 1.168 24.5359 1.392C24.7759 1.6 24.8959 1.912 24.8959 2.328C24.8959 2.712 24.7759 3.024 24.5359 3.264C24.3119 3.488 23.9679 3.6 23.5039 3.6ZM32.5832 18.216C31.5592 18.216 30.6552 17.976 29.8712 17.496C29.1032 17 28.5032 16.296 28.0712 15.384C27.6392 14.456 27.4232 13.376 27.4232 12.144C27.4232 10.896 27.6312 9.824 28.0472 8.928C28.4792 8.016 29.0792 7.32 29.8472 6.84C30.6312 6.344 31.5432 6.096 32.5832 6.096C33.6232 6.096 34.5192 6.36 35.2712 6.888C36.0232 7.4 36.5272 8.088 36.7832 8.952H36.5192V2.016C36.5192 1.648 36.6072 1.376 36.7832 1.2C36.9752 1.008 37.2472 0.912 37.5992 0.912C37.9512 0.912 38.2232 1.008 38.4152 1.2C38.6072 1.376 38.7032 1.648 38.7032 2.016V17.04C38.7032 17.408 38.6072 17.688 38.4152 17.88C38.2232 18.072 37.9512 18.168 37.5992 18.168C37.2632 18.168 36.9992 18.072 36.8072 17.88C36.6152 17.688 36.5192 17.408 36.5192 17.04V14.856L36.7832 15.288C36.5432 16.184 36.0392 16.896 35.2712 17.424C34.5192 17.952 33.6232 18.216 32.5832 18.216ZM33.0872 16.488C33.7912 16.488 34.3992 16.32 34.9112 15.984C35.4392 15.648 35.8392 15.16 36.1112 14.52C36.3992 13.88 36.5432 13.088 36.5432 12.144C36.5432 10.736 36.2312 9.664 35.6072 8.928C34.9832 8.192 34.1432 7.824 33.0872 7.824C32.3992 7.824 31.7912 7.992 31.2632 8.328C30.7512 8.648 30.3512 9.128 30.0632 9.768C29.7752 10.408 29.6312 11.2 29.6312 12.144C29.6312 13.552 29.9432 14.632 30.5672 15.384C31.2072 16.12 32.0472 16.488 33.0872 16.488ZM43.2851 18.168C42.9491 18.168 42.6851 18.072 42.4931 17.88C42.3011 17.688 42.2051 17.408 42.2051 17.04V7.248C42.2051 6.88 42.3011 6.608 42.4931 6.432C42.6851 6.24 42.9491 6.144 43.2851 6.144C43.6211 6.144 43.8771 6.24 44.0531 6.432C44.2451 6.608 44.3411 6.88 44.3411 7.248V9.216L44.0771 8.856C44.4131 7.944 44.9571 7.256 45.7091 6.792C46.4771 6.328 47.3491 6.096 48.3251 6.096C49.2691 6.096 50.0451 6.264 50.6531 6.6C51.2611 6.936 51.7171 7.448 52.0211 8.136C52.3251 8.824 52.4771 9.696 52.4771 10.752V17.04C52.4771 17.408 52.3811 17.688 52.1891 17.88C52.0131 18.072 51.7491 18.168 51.3971 18.168C51.0451 18.168 50.7731 18.072 50.5811 17.88C50.3891 17.688 50.2931 17.408 50.2931 17.04V10.872C50.2931 9.832 50.0931 9.072 49.6931 8.592C49.2931 8.112 48.6531 7.872 47.7731 7.872C46.7491 7.872 45.9251 8.192 45.3011 8.832C44.6931 9.456 44.3891 10.304 44.3891 11.376V17.04C44.3891 17.792 44.0211 18.168 43.2851 18.168ZM57.0195 18.12C56.6835 18.12 56.4195 18.016 56.2275 17.808C56.0355 17.6 55.9395 17.312 55.9395 16.944V7.368C55.9395 6.984 56.0355 6.696 56.2275 6.504C56.4195 6.296 56.6835 6.192 57.0195 6.192C57.3715 6.192 57.6435 6.296 57.8355 6.504C58.0275 6.696 58.1235 6.984 58.1235 7.368V16.944C58.1235 17.312 58.0275 17.6 57.8355 17.808C57.6595 18.016 57.3875 18.12 57.0195 18.12ZM57.0195 3.6C56.5875 3.6 56.2435 3.488 55.9875 3.264C55.7475 3.024 55.6275 2.712 55.6275 2.328C55.6275 1.912 55.7475 1.6 55.9875 1.392C56.2435 1.168 56.5875 1.056 57.0195 1.056C57.4835 1.056 57.8275 1.168 58.0515 1.392C58.2915 1.6 58.4115 1.912 58.4115 2.328C58.4115 2.712 58.2915 3.024 58.0515 3.264C57.8275 3.488 57.4835 3.6 57.0195 3.6ZM66.8908 22.536C66.0268 22.536 65.1868 22.44 64.3708 22.248C63.5708 22.056 62.8428 21.76 62.1868 21.36C61.9788 21.232 61.8348 21.08 61.7548 20.904C61.6908 20.744 61.6748 20.576 61.7068 20.4C61.7548 20.224 61.8348 20.064 61.9468 19.92C62.0748 19.792 62.2188 19.704 62.3788 19.656C62.5548 19.624 62.7308 19.664 62.9068 19.776C63.6108 20.176 64.2828 20.448 64.9228 20.592C65.5628 20.736 66.1708 20.808 66.7468 20.808C67.8828 20.808 68.7308 20.512 69.2908 19.92C69.8668 19.344 70.1548 18.496 70.1548 17.376V14.784H70.3708C70.1468 15.68 69.6428 16.392 68.8588 16.92C68.0908 17.448 67.1948 17.712 66.1708 17.712C65.1148 17.712 64.1948 17.472 63.4108 16.992C62.6268 16.496 62.0188 15.816 61.5868 14.952C61.1548 14.072 60.9388 13.056 60.9388 11.904C60.9388 11.024 61.0588 10.232 61.2988 9.528C61.5548 8.808 61.9068 8.2 62.3548 7.704C62.8188 7.192 63.3708 6.8 64.0108 6.528C64.6508 6.24 65.3708 6.096 66.1708 6.096C67.2108 6.096 68.1148 6.36 68.8828 6.888C69.6508 7.416 70.1468 8.128 70.3708 9.024L70.1068 9.36V7.248C70.1068 6.88 70.2028 6.608 70.3948 6.432C70.5868 6.24 70.8588 6.144 71.2108 6.144C71.5468 6.144 71.8108 6.24 72.0028 6.432C72.1948 6.608 72.2908 6.88 72.2908 7.248V17.088C72.2908 18.896 71.8268 20.256 70.8988 21.168C69.9868 22.08 68.6508 22.536 66.8908 22.536ZM66.6508 15.984C67.3708 15.984 67.9868 15.824 68.4988 15.504C69.0268 15.168 69.4268 14.696 69.6988 14.088C69.9868 13.464 70.1308 12.736 70.1308 11.904C70.1308 10.64 69.8188 9.648 69.1948 8.928C68.5708 8.192 67.7228 7.824 66.6508 7.824C65.9308 7.824 65.3068 7.992 64.7788 8.328C64.2668 8.648 63.8668 9.112 63.5788 9.72C63.2908 10.328 63.1468 11.056 63.1468 11.904C63.1468 13.152 63.4588 14.144 64.0828 14.88C64.7228 15.616 65.5788 15.984 66.6508 15.984ZM76.8711 18.168C76.5351 18.168 76.2711 18.072 76.0791 17.88C75.8871 17.688 75.7911 17.408 75.7911 17.04V2.016C75.7911 1.648 75.8871 1.376 76.0791 1.2C76.2711 1.008 76.5351 0.912 76.8711 0.912C77.2231 0.912 77.4951 1.008 77.6871 1.2C77.8791 1.376 77.9751 1.648 77.9751 2.016V8.856H77.6631C77.9991 7.944 78.5431 7.256 79.2951 6.792C80.0631 6.328 80.9351 6.096 81.9111 6.096C82.8551 6.096 83.6311 6.272 84.2391 6.624C84.8471 6.96 85.3031 7.472 85.6071 8.16C85.9111 8.848 86.0631 9.712 86.0631 10.752V17.04C86.0631 17.408 85.9671 17.688 85.7751 17.88C85.5991 18.072 85.3351 18.168 84.9831 18.168C84.6311 18.168 84.3591 18.072 84.1671 17.88C83.9751 17.688 83.8791 17.408 83.8791 17.04V10.872C83.8791 9.832 83.6791 9.072 83.2791 8.592C82.8791 8.112 82.2391 7.872 81.3591 7.872C80.3351 7.872 79.5111 8.192 78.8871 8.832C78.2791 9.456 77.9751 10.304 77.9751 11.376V17.04C77.9751 17.792 77.6071 18.168 76.8711 18.168ZM94.3734 18.216C93.4294 18.216 92.6374 18.048 91.9974 17.712C91.3734 17.376 90.9014 16.888 90.5814 16.248C90.2774 15.608 90.1254 14.824 90.1254 13.896V7.992H88.5894C88.3014 7.992 88.0774 7.92 87.9174 7.776C87.7574 7.616 87.6774 7.408 87.6774 7.152C87.6774 6.88 87.7574 6.672 87.9174 6.528C88.0774 6.384 88.3014 6.312 88.5894 6.312H90.1254V3.696C90.1254 3.328 90.2214 3.056 90.4134 2.88C90.6054 2.688 90.8774 2.592 91.2294 2.592C91.5814 2.592 91.8454 2.688 92.0214 2.88C92.2134 3.056 92.3094 3.328 92.3094 3.696V6.312H95.2134C95.5174 6.312 95.7494 6.384 95.9094 6.528C96.0694 6.672 96.1494 6.88 96.1494 7.152C96.1494 7.408 96.0694 7.616 95.9094 7.776C95.7494 7.92 95.5174 7.992 95.2134 7.992H92.3094V13.704C92.3094 14.584 92.4934 15.248 92.8614 15.696C93.2294 16.144 93.8374 16.368 94.6854 16.368C94.9894 16.368 95.2454 16.344 95.4534 16.296C95.6614 16.232 95.8454 16.2 96.0054 16.2C96.1494 16.184 96.2694 16.232 96.3654 16.344C96.4774 16.456 96.5334 16.664 96.5334 16.968C96.5334 17.192 96.4934 17.4 96.4134 17.592C96.3494 17.768 96.2134 17.888 96.0054 17.952C95.8134 18.016 95.5574 18.072 95.2374 18.12C94.9174 18.184 94.6294 18.216 94.3734 18.216Z" fill="#212529"/>
<path d="M5.856 36.24C5.168 36.24 4.44 36.168 3.672 36.024C2.904 35.88 2.216 35.632 1.608 35.28C1.352 35.12 1.168 34.936 1.056 34.728C0.96 34.504 0.92 34.288 0.936 34.08C0.968 33.856 1.048 33.664 1.176 33.504C1.32 33.344 1.496 33.24 1.704 33.192C1.928 33.144 2.168 33.184 2.424 33.312C3.064 33.616 3.664 33.832 4.224 33.96C4.784 34.072 5.336 34.128 5.88 34.128C6.648 34.128 7.216 34 7.584 33.744C7.968 33.472 8.16 33.12 8.16 32.688C8.16 32.32 8.032 32.04 7.776 31.848C7.536 31.64 7.168 31.488 6.672 31.392L4.272 30.936C3.28 30.744 2.52 30.384 1.992 29.856C1.48 29.312 1.224 28.616 1.224 27.768C1.224 27 1.432 26.336 1.848 25.776C2.28 25.216 2.872 24.784 3.624 24.48C4.376 24.176 5.24 24.024 6.216 24.024C6.92 24.024 7.576 24.104 8.184 24.264C8.808 24.408 9.408 24.64 9.984 24.96C10.224 25.088 10.384 25.256 10.464 25.464C10.56 25.672 10.584 25.888 10.536 26.112C10.488 26.32 10.392 26.512 10.248 26.688C10.104 26.848 9.92 26.952 9.696 27C9.488 27.032 9.248 26.984 8.976 26.856C8.48 26.6 8 26.416 7.536 26.304C7.088 26.192 6.656 26.136 6.24 26.136C5.456 26.136 4.872 26.272 4.488 26.544C4.12 26.816 3.936 27.176 3.936 27.624C3.936 27.96 4.048 28.24 4.272 28.464C4.496 28.688 4.84 28.84 5.304 28.92L7.704 29.376C8.744 29.568 9.528 29.92 10.056 30.432C10.6 30.944 10.872 31.632 10.872 32.496C10.872 33.664 10.416 34.584 9.504 35.256C8.592 35.912 7.376 36.24 5.856 36.24ZM14.7668 36.192C14.2868 36.192 13.9188 36.064 13.6628 35.808C13.4068 35.536 13.2788 35.152 13.2788 34.656V25.584C13.2788 25.088 13.4068 24.712 13.6628 24.456C13.9188 24.2 14.2788 24.072 14.7428 24.072C15.2068 24.072 15.5668 24.2 15.8228 24.456C16.0788 24.712 16.2068 25.088 16.2068 25.584V27.216L15.9428 26.616C16.2948 25.768 16.8388 25.128 17.5748 24.696C18.3268 24.248 19.1748 24.024 20.1188 24.024C21.0628 24.024 21.8388 24.2 22.4468 24.552C23.0548 24.904 23.5108 25.44 23.8148 26.16C24.1188 26.864 24.2708 27.76 24.2708 28.848V34.656C24.2708 35.152 24.1428 35.536 23.8868 35.808C23.6308 36.064 23.2628 36.192 22.7828 36.192C22.3028 36.192 21.9268 36.064 21.6548 35.808C21.3988 35.536 21.2708 35.152 21.2708 34.656V28.992C21.2708 28.08 21.0948 27.416 20.7428 27C20.4068 26.584 19.8788 26.376 19.1588 26.376C18.2788 26.376 17.5748 26.656 17.0468 27.216C16.5348 27.76 16.2788 28.488 16.2788 29.4V34.656C16.2788 35.68 15.7748 36.192 14.7668 36.192ZM31.1818 36.24C30.3338 36.24 29.5738 36.08 28.9018 35.76C28.2458 35.424 27.7258 34.976 27.3418 34.416C26.9738 33.856 26.7898 33.224 26.7898 32.52C26.7898 31.656 27.0138 30.976 27.4618 30.48C27.9098 29.968 28.6378 29.6 29.6458 29.376C30.6538 29.152 32.0058 29.04 33.7018 29.04H34.9018V30.768H33.7258C32.7338 30.768 31.9418 30.816 31.3498 30.912C30.7578 31.008 30.3338 31.176 30.0778 31.416C29.8378 31.64 29.7178 31.96 29.7178 32.376C29.7178 32.904 29.9018 33.336 30.2698 33.672C30.6378 34.008 31.1498 34.176 31.8058 34.176C32.3338 34.176 32.7978 34.056 33.1978 33.816C33.6138 33.56 33.9418 33.216 34.1818 32.784C34.4218 32.352 34.5418 31.856 34.5418 31.296V28.536C34.5418 27.736 34.3658 27.16 34.0138 26.808C33.6618 26.456 33.0698 26.28 32.2378 26.28C31.7738 26.28 31.2698 26.336 30.7258 26.448C30.1978 26.56 29.6378 26.752 29.0458 27.024C28.7418 27.168 28.4698 27.208 28.2298 27.144C28.0058 27.08 27.8298 26.952 27.7018 26.76C27.5738 26.552 27.5098 26.328 27.5098 26.088C27.5098 25.848 27.5738 25.616 27.7018 25.392C27.8298 25.152 28.0458 24.976 28.3498 24.864C29.0858 24.56 29.7898 24.344 30.4618 24.216C31.1498 24.088 31.7738 24.024 32.3338 24.024C33.4858 24.024 34.4298 24.2 35.1658 24.552C35.9178 24.904 36.4778 25.44 36.8458 26.16C37.2138 26.864 37.3978 27.776 37.3978 28.896V34.656C37.3978 35.152 37.2778 35.536 37.0378 35.808C36.7978 36.064 36.4538 36.192 36.0058 36.192C35.5578 36.192 35.2058 36.064 34.9498 35.808C34.7098 35.536 34.5898 35.152 34.5898 34.656V33.504H34.7818C34.6698 34.064 34.4458 34.552 34.1098 34.968C33.7898 35.368 33.3818 35.68 32.8858 35.904C32.3898 36.128 31.8218 36.24 31.1818 36.24ZM45.8668 36.24C44.6348 36.24 43.5628 35.992 42.6508 35.496C41.7388 34.984 41.0348 34.264 40.5388 33.336C40.0428 32.408 39.7948 31.32 39.7948 30.072C39.7948 29.128 39.9308 28.288 40.2028 27.552C40.4908 26.8 40.8988 26.168 41.4268 25.656C41.9548 25.128 42.5948 24.728 43.3468 24.456C44.0988 24.168 44.9388 24.024 45.8668 24.024C46.3948 24.024 46.9628 24.096 47.5708 24.24C48.1948 24.384 48.7788 24.624 49.3228 24.96C49.5788 25.12 49.7468 25.312 49.8268 25.536C49.9068 25.76 49.9228 25.992 49.8748 26.232C49.8268 26.456 49.7228 26.656 49.5628 26.832C49.4188 26.992 49.2348 27.096 49.0108 27.144C48.7868 27.176 48.5388 27.12 48.2668 26.976C47.9148 26.768 47.5548 26.616 47.1868 26.52C46.8188 26.408 46.4668 26.352 46.1308 26.352C45.6028 26.352 45.1388 26.44 44.7388 26.616C44.3388 26.776 43.9948 27.016 43.7068 27.336C43.4348 27.64 43.2268 28.024 43.0828 28.488C42.9388 28.952 42.8668 29.488 42.8668 30.096C42.8668 31.28 43.1468 32.216 43.7068 32.904C44.2828 33.576 45.0908 33.912 46.1308 33.912C46.4668 33.912 46.8108 33.864 47.1628 33.768C47.5308 33.672 47.8988 33.52 48.2668 33.312C48.5388 33.168 48.7788 33.12 48.9868 33.168C49.2108 33.216 49.3948 33.328 49.5388 33.504C49.6828 33.664 49.7708 33.864 49.8028 34.104C49.8348 34.328 49.8028 34.552 49.7068 34.776C49.6268 35 49.4668 35.184 49.2268 35.328C48.6988 35.648 48.1388 35.88 47.5468 36.024C46.9548 36.168 46.3948 36.24 45.8668 36.24ZM53.2511 36.192C52.7711 36.192 52.4031 36.064 52.1471 35.808C51.8911 35.536 51.7631 35.152 51.7631 34.656V20.4C51.7631 19.904 51.8911 19.528 52.1471 19.272C52.4031 19.016 52.7711 18.888 53.2511 18.888C53.7311 18.888 54.0991 19.016 54.3551 19.272C54.6271 19.528 54.7631 19.904 54.7631 20.4V29.256H54.8111L58.7711 25.08C59.0911 24.76 59.3711 24.512 59.6111 24.336C59.8511 24.16 60.1791 24.072 60.5951 24.072C61.0111 24.072 61.3231 24.184 61.5311 24.408C61.7551 24.616 61.8671 24.872 61.8671 25.176C61.8671 25.48 61.7231 25.784 61.4351 26.088L57.2591 30.504V29.256L61.8431 34.2C62.1311 34.504 62.2591 34.816 62.2271 35.136C62.2111 35.44 62.0831 35.696 61.8431 35.904C61.6031 36.096 61.2991 36.192 60.9311 36.192C60.4831 36.192 60.1231 36.104 59.8511 35.928C59.5951 35.752 59.3071 35.488 58.9871 35.136L54.8111 30.768H54.7631V34.656C54.7631 35.68 54.2591 36.192 53.2511 36.192Z" fill="#8EC188"/>
</svg>
