<svg width="554" height="228" viewBox="0 0 554 228" fill="none" xmlns="http://www.w3.org/2000/svg">
<rect x="189" y="193" width="231" height="21" fill="#8EC188"/>
<path d="M42.429 52.9091C42.429 57.509 41.5571 61.4223 39.8132 64.6491C38.0831 67.8759 35.7214 70.3407 32.728 72.0433C29.7483 73.7322 26.398 74.5767 22.6768 74.5767C18.9283 74.5767 15.5642 73.7254 12.5845 72.0227C9.60488 70.3201 7.25 67.8554 5.51989 64.6286C3.78977 61.4018 2.92472 57.4953 2.92472 52.9091C2.92472 48.3092 3.78977 44.3958 5.51989 41.169C7.25 37.9422 9.60488 35.4844 12.5845 33.7955C15.5642 32.0928 18.9283 31.2415 22.6768 31.2415C26.398 31.2415 29.7483 32.0928 32.728 33.7955C35.7214 35.4844 38.0831 37.9422 39.8132 41.169C41.5571 44.3958 42.429 48.3092 42.429 52.9091ZM33.3871 52.9091C33.3871 49.9295 32.9408 47.4167 32.0483 45.3707C31.1695 43.3248 29.9268 41.7732 28.3203 40.7159C26.7138 39.6586 24.8326 39.13 22.6768 39.13C20.5211 39.13 18.6399 39.6586 17.0334 40.7159C15.4268 41.7732 14.1773 43.3248 13.2848 45.3707C12.406 47.4167 11.9666 49.9295 11.9666 52.9091C11.9666 55.8887 12.406 58.4015 13.2848 60.4474C14.1773 62.4934 15.4268 64.045 17.0334 65.1023C18.6399 66.1596 20.5211 66.6882 22.6768 66.6882C24.8326 66.6882 26.7138 66.1596 28.3203 65.1023C29.9268 64.045 31.1695 62.4934 32.0483 60.4474C32.9408 58.4015 33.3871 55.8887 33.3871 52.9091ZM48.8706 74V42.3636H57.377V47.8835H57.7065C58.2832 45.92 59.2512 44.437 60.6106 43.4347C61.97 42.4186 63.5353 41.9105 65.3066 41.9105C65.746 41.9105 66.2198 41.938 66.7278 41.9929C67.2359 42.0478 67.6821 42.1233 68.0666 42.2195V50.005C67.6547 49.8814 67.0848 49.7715 66.3571 49.6754C65.6293 49.5793 64.9634 49.5312 64.3592 49.5312C63.0685 49.5312 61.9151 49.8127 60.899 50.3757C59.8966 50.925 59.1002 51.6939 58.5098 52.6825C57.9331 53.6712 57.6447 54.8108 57.6447 56.1016V74H48.8706ZM82.788 74.5149C80.3851 74.5149 78.2087 73.897 76.2589 72.6612C74.3228 71.4117 72.7849 69.5786 71.6452 67.1619C70.5193 64.7315 69.9563 61.7519 69.9563 58.223C69.9563 54.598 70.5399 51.584 71.707 49.1811C72.8742 46.7644 74.4258 44.9588 76.3619 43.7642C78.3117 42.5559 80.4469 41.9517 82.7674 41.9517C84.5387 41.9517 86.0148 42.2538 87.1957 42.858C88.3903 43.4484 89.3514 44.1899 90.0792 45.0824C90.8207 45.9612 91.3836 46.8262 91.7681 47.6776H92.0359V31.8182H100.789V74H92.1389V68.9332H91.7681C91.3562 69.812 90.7726 70.6839 90.0174 71.549C89.2759 72.4003 88.3079 73.1075 87.1133 73.6705C85.9324 74.2334 84.4906 74.5149 82.788 74.5149ZM85.5685 67.5327C86.9828 67.5327 88.1774 67.1482 89.1523 66.3793C90.141 65.5966 90.8962 64.505 91.418 63.1044C91.9535 61.7038 92.2212 60.063 92.2212 58.1818C92.2212 56.3007 91.9603 54.6667 91.4386 53.2798C90.9168 51.893 90.1616 50.822 89.1729 50.0668C88.1843 49.3116 86.9828 48.9339 85.5685 48.9339C84.1268 48.9339 82.9116 49.3253 81.9229 50.108C80.9343 50.8906 80.186 51.9754 79.6779 53.3622C79.1699 54.7491 78.9158 56.3556 78.9158 58.1818C78.9158 60.0218 79.1699 61.6489 79.6779 63.0632C80.1997 64.4638 80.948 65.5623 81.9229 66.3587C82.9116 67.1413 84.1268 67.5327 85.5685 67.5327ZM122.421 74.6179C119.167 74.6179 116.366 73.9588 114.018 72.6406C111.683 71.3087 109.885 69.4276 108.621 66.9972C107.358 64.553 106.726 61.6626 106.726 58.326C106.726 55.0717 107.358 52.2157 108.621 49.7578C109.885 47.3 111.663 45.3845 113.956 44.0114C116.263 42.6383 118.968 41.9517 122.071 41.9517C124.158 41.9517 126.101 42.2881 127.9 42.9609C129.712 43.62 131.291 44.6155 132.637 45.9474C133.996 47.2794 135.054 48.9545 135.809 50.973C136.564 52.9777 136.942 55.3258 136.942 58.017V60.4268H110.228V54.9893H128.682C128.682 53.7261 128.408 52.607 127.858 51.6321C127.309 50.6572 126.547 49.8951 125.572 49.3459C124.611 48.7829 123.492 48.5014 122.215 48.5014C120.883 48.5014 119.702 48.8104 118.672 49.4283C117.656 50.0324 116.86 50.8494 116.283 51.8793C115.706 52.8954 115.411 54.0282 115.398 55.2777V60.4474C115.398 62.0128 115.686 63.3653 116.263 64.505C116.853 65.6446 117.684 66.5234 118.755 67.1413C119.826 67.7592 121.096 68.0682 122.565 68.0682C123.54 68.0682 124.433 67.9309 125.243 67.6562C126.053 67.3816 126.746 66.9697 127.323 66.4205C127.9 65.8712 128.339 65.1984 128.641 64.402L136.756 64.9375C136.344 66.8873 135.5 68.59 134.223 70.0455C132.96 71.4872 131.326 72.6132 129.321 73.4233C127.33 74.2197 125.03 74.6179 122.421 74.6179ZM142.667 74V42.3636H151.174V47.8835H151.503C152.08 45.92 153.048 44.437 154.407 43.4347C155.767 42.4186 157.332 41.9105 159.104 41.9105C159.543 41.9105 160.017 41.938 160.525 41.9929C161.033 42.0478 161.479 42.1233 161.863 42.2195V50.005C161.452 49.8814 160.882 49.7715 160.154 49.6754C159.426 49.5793 158.76 49.5312 158.156 49.5312C156.865 49.5312 155.712 49.8127 154.696 50.3757C153.693 50.925 152.897 51.6939 152.307 52.6825C151.73 53.6712 151.442 54.8108 151.442 56.1016V74H142.667ZM177.517 31.8182H187.506L197.125 49.9844H197.537L207.155 31.8182H217.145L201.759 59.0881V74H192.903V59.0881L177.517 31.8182ZM229.518 74.6179C226.319 74.6179 223.552 73.9382 221.218 72.5788C218.897 71.2057 217.105 69.2971 215.842 66.853C214.579 64.3951 213.947 61.5459 213.947 58.3054C213.947 55.0374 214.579 52.1813 215.842 49.7372C217.105 47.2794 218.897 45.3707 221.218 44.0114C223.552 42.6383 226.319 41.9517 229.518 41.9517C232.717 41.9517 235.477 42.6383 237.798 44.0114C240.132 45.3707 241.931 47.2794 243.194 49.7372C244.458 52.1813 245.089 55.0374 245.089 58.3054C245.089 61.5459 244.458 64.3951 243.194 66.853C241.931 69.2971 240.132 71.2057 237.798 72.5788C235.477 73.9382 232.717 74.6179 229.518 74.6179ZM229.559 67.821C231.015 67.821 232.23 67.4091 233.205 66.5852C234.18 65.7476 234.914 64.608 235.409 63.1662C235.917 61.7244 236.171 60.0836 236.171 58.2436C236.171 56.4036 235.917 54.7628 235.409 53.321C234.914 51.8793 234.18 50.7396 233.205 49.902C232.23 49.0644 231.015 48.6456 229.559 48.6456C228.09 48.6456 226.854 49.0644 225.852 49.902C224.863 50.7396 224.115 51.8793 223.607 53.321C223.113 54.7628 222.865 56.4036 222.865 58.2436C222.865 60.0836 223.113 61.7244 223.607 63.1662C224.115 64.608 224.863 65.7476 225.852 66.5852C226.854 67.4091 228.09 67.821 229.559 67.821ZM271.082 60.5298V42.3636H279.856V74H271.432V68.2536H271.103C270.389 70.1072 269.201 71.5971 267.539 72.723C265.892 73.849 263.88 74.4119 261.505 74.4119C259.39 74.4119 257.529 73.9313 255.923 72.9702C254.316 72.009 253.06 70.6428 252.154 68.8714C251.261 67.1001 250.808 64.9787 250.794 62.5071V42.3636H259.569V60.9418C259.582 62.8092 260.083 64.2853 261.072 65.37C262.061 66.4548 263.386 66.9972 265.047 66.9972C266.105 66.9972 267.093 66.7569 268.013 66.2763C268.933 65.782 269.675 65.0542 270.238 64.093C270.814 63.1319 271.096 61.9441 271.082 60.5298ZM286.874 74V42.3636H295.381V47.8835H295.71C296.287 45.92 297.255 44.437 298.615 43.4347C299.974 42.4186 301.539 41.9105 303.311 41.9105C303.75 41.9105 304.224 41.938 304.732 41.9929C305.24 42.0478 305.686 42.1233 306.07 42.2195V50.005C305.659 49.8814 305.089 49.7715 304.361 49.6754C303.633 49.5793 302.967 49.5312 302.363 49.5312C301.072 49.5312 299.919 49.8127 298.903 50.3757C297.901 50.925 297.104 51.6939 296.514 52.6825C295.937 53.6712 295.649 54.8108 295.649 56.1016V74H286.874ZM3.66619 144V101.818H31.5952V109.171H12.5845V119.222H29.7415V126.575H12.5845V144H3.66619ZM46.054 144.597C44.0355 144.597 42.2367 144.247 40.6577 143.547C39.0786 142.833 37.8291 141.782 36.9091 140.396C36.0028 138.995 35.5497 137.251 35.5497 135.164C35.5497 133.406 35.8724 131.93 36.5178 130.736C37.1631 129.541 38.0419 128.58 39.1541 127.852C40.2663 127.125 41.5296 126.575 42.9439 126.205C44.3719 125.834 45.8686 125.573 47.4339 125.422C49.2739 125.23 50.7569 125.051 51.8828 124.886C53.0088 124.708 53.8258 124.447 54.3338 124.104C54.8419 123.76 55.0959 123.252 55.0959 122.58V122.456C55.0959 121.152 54.6839 120.142 53.8601 119.428C53.05 118.714 51.8965 118.357 50.3999 118.357C48.8208 118.357 47.5644 118.707 46.6307 119.408C45.697 120.094 45.0791 120.959 44.777 122.003L36.6619 121.344C37.0739 119.421 37.884 117.76 39.0923 116.359C40.3007 114.945 41.8591 113.86 43.7678 113.105C45.6901 112.336 47.9145 111.952 50.4411 111.952C52.1986 111.952 53.8807 112.158 55.4872 112.57C57.1075 112.982 58.5424 113.62 59.7919 114.485C61.0552 115.35 62.0507 116.462 62.7784 117.822C63.5062 119.167 63.87 120.781 63.87 122.662V144H55.549V139.613H55.3018C54.7938 140.602 54.1141 141.473 53.2628 142.229C52.4115 142.97 51.3885 143.554 50.1939 143.979C48.9993 144.391 47.6193 144.597 46.054 144.597ZM48.5668 138.542C49.8575 138.542 50.9972 138.288 51.9858 137.78C52.9744 137.258 53.7502 136.558 54.3132 135.679C54.8762 134.8 55.1577 133.805 55.1577 132.692V129.335C54.8831 129.514 54.5054 129.679 54.0249 129.83C53.558 129.967 53.0294 130.097 52.4389 130.221C51.8485 130.331 51.258 130.434 50.6676 130.53C50.0772 130.612 49.5417 130.688 49.0611 130.756C48.0313 130.907 47.1319 131.148 46.3629 131.477C45.594 131.807 44.9967 132.253 44.571 132.816C44.1454 133.365 43.9325 134.052 43.9325 134.876C43.9325 136.07 44.3651 136.983 45.2301 137.615C46.1089 138.233 47.2211 138.542 48.5668 138.542ZM99.0387 112.364L87.9783 144H78.092L67.0316 112.364H76.3001L82.8704 134.999H83.1999L89.7496 112.364H99.0387ZM116.803 144.618C113.604 144.618 110.837 143.938 108.503 142.579C106.182 141.206 104.39 139.297 103.127 136.853C101.864 134.395 101.232 131.546 101.232 128.305C101.232 125.037 101.864 122.181 103.127 119.737C104.39 117.279 106.182 115.371 108.503 114.011C110.837 112.638 113.604 111.952 116.803 111.952C120.003 111.952 122.763 112.638 125.083 114.011C127.417 115.371 129.216 117.279 130.479 119.737C131.743 122.181 132.374 125.037 132.374 128.305C132.374 131.546 131.743 134.395 130.479 136.853C129.216 139.297 127.417 141.206 125.083 142.579C122.763 143.938 120.003 144.618 116.803 144.618ZM116.844 137.821C118.3 137.821 119.515 137.409 120.49 136.585C121.465 135.748 122.2 134.608 122.694 133.166C123.202 131.724 123.456 130.084 123.456 128.244C123.456 126.404 123.202 124.763 122.694 123.321C122.2 121.879 121.465 120.74 120.49 119.902C119.515 119.064 118.3 118.646 116.844 118.646C115.375 118.646 114.139 119.064 113.137 119.902C112.148 120.74 111.4 121.879 110.892 123.321C110.398 124.763 110.151 126.404 110.151 128.244C110.151 130.084 110.398 131.724 110.892 133.166C111.4 134.608 112.148 135.748 113.137 136.585C114.139 137.409 115.375 137.821 116.844 137.821ZM158.367 130.53V112.364H167.141V144H158.717V138.254H158.388C157.674 140.107 156.486 141.597 154.825 142.723C153.177 143.849 151.165 144.412 148.79 144.412C146.675 144.412 144.815 143.931 143.208 142.97C141.602 142.009 140.345 140.643 139.439 138.871C138.546 137.1 138.093 134.979 138.08 132.507V112.364H146.854V130.942C146.867 132.809 147.369 134.285 148.357 135.37C149.346 136.455 150.671 136.997 152.332 136.997C153.39 136.997 154.378 136.757 155.298 136.276C156.218 135.782 156.96 135.054 157.523 134.093C158.099 133.132 158.381 131.944 158.367 130.53ZM174.16 144V112.364H182.666V117.884H182.996C183.572 115.92 184.54 114.437 185.9 113.435C187.259 112.419 188.824 111.911 190.596 111.911C191.035 111.911 191.509 111.938 192.017 111.993C192.525 112.048 192.971 112.123 193.356 112.219V120.005C192.944 119.881 192.374 119.772 191.646 119.675C190.918 119.579 190.252 119.531 189.648 119.531C188.358 119.531 187.204 119.813 186.188 120.376C185.186 120.925 184.389 121.694 183.799 122.683C183.222 123.671 182.934 124.811 182.934 126.102V144H174.16ZM197.892 144V112.364H206.666V144H197.892ZM202.3 108.286C200.995 108.286 199.876 107.853 198.942 106.988C198.022 106.109 197.562 105.059 197.562 103.837C197.562 102.628 198.022 101.592 198.942 100.727C199.876 99.8478 200.995 99.4084 202.3 99.4084C203.604 99.4084 204.716 99.8478 205.636 100.727C206.57 101.592 207.037 102.628 207.037 103.837C207.037 105.059 206.57 106.109 205.636 106.988C204.716 107.853 203.604 108.286 202.3 108.286ZM230.522 112.364V118.955H211.47V112.364H230.522ZM215.796 104.784H224.57V134.278C224.57 135.089 224.693 135.72 224.941 136.173C225.188 136.613 225.531 136.922 225.97 137.1C226.423 137.279 226.945 137.368 227.536 137.368C227.948 137.368 228.36 137.334 228.771 137.265C229.183 137.183 229.499 137.121 229.719 137.08L231.099 143.609C230.66 143.746 230.042 143.904 229.245 144.082C228.449 144.275 227.481 144.391 226.341 144.433C224.227 144.515 222.373 144.233 220.78 143.588C219.201 142.943 217.972 141.94 217.093 140.581C216.214 139.222 215.782 137.505 215.796 135.432V104.784ZM250.316 144.618C247.061 144.618 244.26 143.959 241.912 142.641C239.578 141.309 237.779 139.428 236.516 136.997C235.253 134.553 234.621 131.663 234.621 128.326C234.621 125.072 235.253 122.216 236.516 119.758C237.779 117.3 239.557 115.384 241.85 114.011C244.157 112.638 246.862 111.952 249.965 111.952C252.052 111.952 253.995 112.288 255.794 112.961C257.607 113.62 259.186 114.616 260.531 115.947C261.891 117.279 262.948 118.955 263.703 120.973C264.459 122.978 264.836 125.326 264.836 128.017V130.427H238.122V124.989H256.577C256.577 123.726 256.302 122.607 255.753 121.632C255.204 120.657 254.442 119.895 253.467 119.346C252.506 118.783 251.387 118.501 250.11 118.501C248.778 118.501 247.597 118.81 246.567 119.428C245.551 120.032 244.754 120.849 244.178 121.879C243.601 122.895 243.306 124.028 243.292 125.278V130.447C243.292 132.013 243.58 133.365 244.157 134.505C244.748 135.645 245.578 136.523 246.649 137.141C247.72 137.759 248.99 138.068 250.46 138.068C251.435 138.068 252.327 137.931 253.137 137.656C253.947 137.382 254.641 136.97 255.218 136.42C255.794 135.871 256.234 135.198 256.536 134.402L264.651 134.938C264.239 136.887 263.394 138.59 262.117 140.045C260.854 141.487 259.22 142.613 257.215 143.423C255.224 144.22 252.924 144.618 250.316 144.618ZM284.151 144V101.818H312.08V109.171H293.069V119.222H310.226V126.575H293.069V144H284.151ZM329.885 144.618C326.686 144.618 323.919 143.938 321.585 142.579C319.264 141.206 317.472 139.297 316.209 136.853C314.946 134.395 314.314 131.546 314.314 128.305C314.314 125.037 314.946 122.181 316.209 119.737C317.472 117.279 319.264 115.371 321.585 114.011C323.919 112.638 326.686 111.952 329.885 111.952C333.085 111.952 335.845 112.638 338.165 114.011C340.499 115.371 342.298 117.279 343.561 119.737C344.825 122.181 345.456 125.037 345.456 128.305C345.456 131.546 344.825 134.395 343.561 136.853C342.298 139.297 340.499 141.206 338.165 142.579C335.845 143.938 333.085 144.618 329.885 144.618ZM329.926 137.821C331.382 137.821 332.597 137.409 333.572 136.585C334.547 135.748 335.282 134.608 335.776 133.166C336.284 131.724 336.538 130.084 336.538 128.244C336.538 126.404 336.284 124.763 335.776 123.321C335.282 121.879 334.547 120.74 333.572 119.902C332.597 119.064 331.382 118.646 329.926 118.646C328.457 118.646 327.221 119.064 326.219 119.902C325.23 120.74 324.482 121.879 323.974 123.321C323.48 124.763 323.233 126.404 323.233 128.244C323.233 130.084 323.48 131.724 323.974 133.166C324.482 134.608 325.23 135.748 326.219 136.585C327.221 137.409 328.457 137.821 329.926 137.821ZM365.456 144.618C362.256 144.618 359.489 143.938 357.155 142.579C354.835 141.206 353.043 139.297 351.779 136.853C350.516 134.395 349.885 131.546 349.885 128.305C349.885 125.037 350.516 122.181 351.779 119.737C353.043 117.279 354.835 115.371 357.155 114.011C359.489 112.638 362.256 111.952 365.456 111.952C368.655 111.952 371.415 112.638 373.735 114.011C376.07 115.371 377.868 117.279 379.132 119.737C380.395 122.181 381.027 125.037 381.027 128.305C381.027 131.546 380.395 134.395 379.132 136.853C377.868 139.297 376.07 141.206 373.735 142.579C371.415 143.938 368.655 144.618 365.456 144.618ZM365.497 137.821C366.952 137.821 368.167 137.409 369.142 136.585C370.117 135.748 370.852 134.608 371.346 133.166C371.854 131.724 372.108 130.084 372.108 128.244C372.108 126.404 371.854 124.763 371.346 123.321C370.852 121.879 370.117 120.74 369.142 119.902C368.167 119.064 366.952 118.646 365.497 118.646C364.028 118.646 362.792 119.064 361.789 119.902C360.801 120.74 360.052 121.879 359.544 123.321C359.05 124.763 358.803 126.404 358.803 128.244C358.803 130.084 359.05 131.724 359.544 133.166C360.052 134.608 360.801 135.748 361.789 136.585C362.792 137.409 364.028 137.821 365.497 137.821ZM398.39 144.515C395.987 144.515 393.81 143.897 391.86 142.661C389.924 141.412 388.386 139.579 387.247 137.162C386.121 134.732 385.558 131.752 385.558 128.223C385.558 124.598 386.141 121.584 387.309 119.181C388.476 116.764 390.027 114.959 391.963 113.764C393.913 112.556 396.048 111.952 398.369 111.952C400.14 111.952 401.616 112.254 402.797 112.858C403.992 113.448 404.953 114.19 405.681 115.082C406.422 115.961 406.985 116.826 407.37 117.678H407.637V101.818H416.391V144H407.74V138.933H407.37C406.958 139.812 406.374 140.684 405.619 141.549C404.877 142.4 403.909 143.107 402.715 143.67C401.534 144.233 400.092 144.515 398.39 144.515ZM401.17 137.533C402.584 137.533 403.779 137.148 404.754 136.379C405.743 135.597 406.498 134.505 407.02 133.104C407.555 131.704 407.823 130.063 407.823 128.182C407.823 126.301 407.562 124.667 407.04 123.28C406.518 121.893 405.763 120.822 404.775 120.067C403.786 119.312 402.584 118.934 401.17 118.934C399.728 118.934 398.513 119.325 397.525 120.108C396.536 120.891 395.788 121.975 395.279 123.362C394.771 124.749 394.517 126.356 394.517 128.182C394.517 130.022 394.771 131.649 395.279 133.063C395.801 134.464 396.55 135.562 397.525 136.359C398.513 137.141 399.728 137.533 401.17 137.533ZM449.927 121.385L441.895 121.879C441.757 121.193 441.462 120.575 441.009 120.026C440.556 119.463 439.959 119.016 439.217 118.687C438.489 118.344 437.617 118.172 436.601 118.172C435.242 118.172 434.095 118.46 433.162 119.037C432.228 119.6 431.761 120.355 431.761 121.303C431.761 122.058 432.063 122.696 432.667 123.218C433.272 123.74 434.308 124.159 435.778 124.474L441.503 125.628C444.579 126.259 446.872 127.276 448.383 128.676C449.893 130.077 450.648 131.917 450.648 134.196C450.648 136.269 450.037 138.089 448.815 139.654C447.607 141.219 445.945 142.442 443.831 143.32C441.73 144.185 439.306 144.618 436.56 144.618C432.372 144.618 429.036 143.746 426.55 142.002C424.079 140.245 422.63 137.855 422.204 134.835L430.834 134.381C431.095 135.658 431.727 136.633 432.729 137.306C433.732 137.965 435.015 138.295 436.581 138.295C438.119 138.295 439.354 138 440.288 137.409C441.236 136.805 441.716 136.029 441.73 135.082C441.716 134.285 441.38 133.633 440.721 133.125C440.062 132.603 439.046 132.205 437.672 131.93L432.194 130.839C429.104 130.221 426.804 129.15 425.294 127.626C423.797 126.102 423.049 124.159 423.049 121.797C423.049 119.765 423.598 118.014 424.697 116.545C425.809 115.076 427.367 113.943 429.372 113.146C431.39 112.35 433.752 111.952 436.457 111.952C440.453 111.952 443.597 112.796 445.89 114.485C448.197 116.174 449.543 118.474 449.927 121.385ZM16.4361 214.618C13.5251 214.618 11.0123 214.096 8.89773 213.053C6.78314 212.009 5.15601 210.595 4.01634 208.81C2.89039 207.011 2.32741 205.006 2.32741 202.795C2.32741 201.148 2.65696 199.685 3.31605 198.408C3.97514 197.131 4.89512 195.957 6.07599 194.886C7.25687 193.802 8.62997 192.724 10.1953 191.653L18.3722 186.277C19.4295 185.604 20.2053 184.897 20.6996 184.156C21.1939 183.4 21.4411 182.583 21.4411 181.705C21.4411 180.867 21.1046 180.091 20.4318 179.377C19.759 178.663 18.8047 178.313 17.5689 178.327C16.745 178.327 16.031 178.512 15.4268 178.883C14.8227 179.24 14.349 179.714 14.0057 180.304C13.6761 180.881 13.5114 181.526 13.5114 182.24C13.5114 183.119 13.7585 184.011 14.2528 184.918C14.7472 185.824 15.4063 186.785 16.2301 187.801C17.054 188.804 17.9534 189.888 18.9283 191.055L38.9276 214H29.7827L13.0994 195.422C12.0009 194.172 10.9025 192.868 9.80398 191.509C8.71922 190.135 7.81297 188.68 7.08523 187.142C6.35748 185.59 5.99361 183.908 5.99361 182.096C5.99361 180.05 6.46733 178.21 7.41477 176.576C8.37595 174.942 9.72159 173.651 11.4517 172.704C13.1818 171.743 15.2003 171.262 17.5071 171.262C19.759 171.262 21.7019 171.722 23.3359 172.642C24.9837 173.548 26.2469 174.757 27.1257 176.267C28.0182 177.764 28.4645 179.411 28.4645 181.21C28.4645 183.201 27.9702 185.007 26.9815 186.627C26.0066 188.234 24.6335 189.675 22.8622 190.952L14.2528 197.152C13.0857 198.003 12.2206 198.875 11.6577 199.768C11.1084 200.647 10.8338 201.491 10.8338 202.301C10.8338 203.304 11.081 204.203 11.5753 204.999C12.0696 205.796 12.7699 206.427 13.6761 206.894C14.5824 207.347 15.6465 207.574 16.8686 207.574C18.3516 207.574 19.8139 207.237 21.2557 206.565C22.7112 205.878 24.0294 204.91 25.2102 203.661C26.4048 202.397 27.3591 200.901 28.0732 199.17C28.7872 197.44 29.1442 195.525 29.1442 193.424H36.4148C36.4148 196.005 36.1333 198.333 35.5703 200.406C35.0073 202.466 34.2247 204.265 33.2223 205.803C32.2199 207.327 31.0734 208.576 29.7827 209.551C29.3707 209.812 28.9725 210.059 28.5881 210.293C28.2036 210.526 27.8054 210.773 27.3935 211.034C25.8281 212.297 24.0774 213.21 22.1413 213.773C20.219 214.336 18.3172 214.618 16.4361 214.618ZM56.1721 214V171.818H84.101V179.171H65.0904V189.222H82.2473V196.575H65.0904V214H56.1721ZM98.5598 214.597C96.5414 214.597 94.7426 214.247 93.1635 213.547C91.5845 212.833 90.3349 211.782 89.415 210.396C88.5087 208.995 88.0556 207.251 88.0556 205.164C88.0556 203.406 88.3783 201.93 89.0236 200.736C89.669 199.541 90.5478 198.58 91.66 197.852C92.7722 197.125 94.0355 196.575 95.4498 196.205C96.8778 195.834 98.3745 195.573 99.9398 195.422C101.78 195.23 103.263 195.051 104.389 194.886C105.515 194.708 106.332 194.447 106.84 194.104C107.348 193.76 107.602 193.252 107.602 192.58V192.456C107.602 191.152 107.19 190.142 106.366 189.428C105.556 188.714 104.402 188.357 102.906 188.357C101.327 188.357 100.07 188.707 99.1365 189.408C98.2028 190.094 97.5849 190.959 97.2828 192.003L89.1678 191.344C89.5797 189.421 90.3899 187.76 91.5982 186.359C92.8065 184.945 94.365 183.86 96.2736 183.105C98.196 182.336 100.42 181.952 102.947 181.952C104.704 181.952 106.387 182.158 107.993 182.57C109.613 182.982 111.048 183.62 112.298 184.485C113.561 185.35 114.557 186.462 115.284 187.822C116.012 189.167 116.376 190.781 116.376 192.662V214H108.055V209.613H107.808C107.3 210.602 106.62 211.473 105.769 212.229C104.917 212.97 103.894 213.554 102.7 213.979C101.505 214.391 100.125 214.597 98.5598 214.597ZM101.073 208.542C102.363 208.542 103.503 208.288 104.492 207.78C105.48 207.258 106.256 206.558 106.819 205.679C107.382 204.8 107.664 203.805 107.664 202.692V199.335C107.389 199.514 107.011 199.679 106.531 199.83C106.064 199.967 105.535 200.097 104.945 200.221C104.354 200.331 103.764 200.434 103.173 200.53C102.583 200.612 102.048 200.688 101.567 200.756C100.537 200.907 99.6377 201.148 98.8688 201.477C98.0998 201.807 97.5025 202.253 97.0769 202.816C96.6512 203.365 96.4384 204.052 96.4384 204.876C96.4384 206.07 96.8709 206.983 97.736 207.615C98.6148 208.233 99.727 208.542 101.073 208.542ZM149.506 191.385L141.473 191.879C141.336 191.193 141.04 190.575 140.587 190.026C140.134 189.463 139.537 189.016 138.795 188.687C138.068 188.344 137.196 188.172 136.18 188.172C134.82 188.172 133.674 188.46 132.74 189.037C131.806 189.6 131.339 190.355 131.339 191.303C131.339 192.058 131.641 192.696 132.246 193.218C132.85 193.74 133.886 194.159 135.356 194.474L141.081 195.628C144.157 196.259 146.45 197.276 147.961 198.676C149.471 200.077 150.226 201.917 150.226 204.196C150.226 206.269 149.615 208.089 148.393 209.654C147.185 211.219 145.523 212.442 143.409 213.32C141.308 214.185 138.885 214.618 136.138 214.618C131.95 214.618 128.614 213.746 126.128 212.002C123.657 210.245 122.208 207.855 121.782 204.835L130.412 204.381C130.673 205.658 131.305 206.633 132.307 207.306C133.31 207.965 134.594 208.295 136.159 208.295C137.697 208.295 138.933 208 139.866 207.409C140.814 206.805 141.294 206.029 141.308 205.082C141.294 204.285 140.958 203.633 140.299 203.125C139.64 202.603 138.624 202.205 137.251 201.93L131.772 200.839C128.682 200.221 126.382 199.15 124.872 197.626C123.375 196.102 122.627 194.159 122.627 191.797C122.627 189.765 123.176 188.014 124.275 186.545C125.387 185.076 126.945 183.943 128.95 183.146C130.969 182.35 133.33 181.952 136.035 181.952C140.031 181.952 143.175 182.796 145.469 184.485C147.775 186.174 149.121 188.474 149.506 191.385ZM172.579 182.364V188.955H153.527V182.364H172.579ZM157.852 174.784H166.626V204.278C166.626 205.089 166.75 205.72 166.997 206.173C167.244 206.613 167.588 206.922 168.027 207.1C168.48 207.279 169.002 207.368 169.592 207.368C170.004 207.368 170.416 207.334 170.828 207.265C171.24 207.183 171.556 207.121 171.776 207.08L173.156 213.609C172.716 213.746 172.098 213.904 171.302 214.082C170.505 214.275 169.537 214.391 168.398 214.433C166.283 214.515 164.429 214.233 162.837 213.588C161.258 212.943 160.029 211.94 159.15 210.581C158.271 209.222 157.839 207.505 157.852 205.432V174.784ZM206.836 214H191.883V171.818H206.96C211.203 171.818 214.855 172.663 217.917 174.352C220.979 176.027 223.334 178.437 224.982 181.581C226.643 184.725 227.474 188.488 227.474 192.868C227.474 197.262 226.643 201.038 224.982 204.196C223.334 207.354 220.965 209.778 217.876 211.467C214.8 213.156 211.12 214 206.836 214ZM200.801 206.359H206.465C209.102 206.359 211.319 205.892 213.118 204.958C214.931 204.011 216.29 202.548 217.196 200.571C218.116 198.58 218.576 196.012 218.576 192.868C218.576 189.751 218.116 187.204 217.196 185.227C216.29 183.249 214.937 181.794 213.139 180.86C211.34 179.926 209.122 179.46 206.486 179.46H200.801V206.359ZM248.333 214.618C245.079 214.618 242.278 213.959 239.93 212.641C237.595 211.309 235.797 209.428 234.533 206.997C233.27 204.553 232.638 201.663 232.638 198.326C232.638 195.072 233.27 192.216 234.533 189.758C235.797 187.3 237.575 185.384 239.868 184.011C242.175 182.638 244.88 181.952 247.983 181.952C250.07 181.952 252.013 182.288 253.812 182.961C255.624 183.62 257.203 184.616 258.549 185.947C259.908 187.279 260.966 188.955 261.721 190.973C262.476 192.978 262.854 195.326 262.854 198.017V200.427H236.14V194.989H254.594C254.594 193.726 254.32 192.607 253.771 191.632C253.221 190.657 252.459 189.895 251.484 189.346C250.523 188.783 249.404 188.501 248.127 188.501C246.795 188.501 245.614 188.81 244.585 189.428C243.568 190.032 242.772 190.849 242.195 191.879C241.619 192.895 241.323 194.028 241.31 195.278V200.447C241.31 202.013 241.598 203.365 242.175 204.505C242.765 205.645 243.596 206.523 244.667 207.141C245.738 207.759 247.008 208.068 248.477 208.068C249.452 208.068 250.345 207.931 251.155 207.656C251.965 207.382 252.658 206.97 253.235 206.42C253.812 205.871 254.251 205.198 254.553 204.402L262.668 204.938C262.256 206.887 261.412 208.59 260.135 210.045C258.872 211.487 257.238 212.613 255.233 213.423C253.242 214.22 250.942 214.618 248.333 214.618ZM277.354 171.818V214H268.58V171.818H277.354ZM284.382 214V182.364H293.156V214H284.382ZM288.79 178.286C287.485 178.286 286.366 177.853 285.433 176.988C284.513 176.109 284.053 175.059 284.053 173.837C284.053 172.628 284.513 171.592 285.433 170.727C286.366 169.848 287.485 169.408 288.79 169.408C290.094 169.408 291.207 169.848 292.127 170.727C293.06 171.592 293.527 172.628 293.527 173.837C293.527 175.059 293.06 176.109 292.127 176.988C291.207 177.853 290.094 178.286 288.79 178.286ZM329.679 182.364L318.619 214H308.733L297.672 182.364H306.941L313.511 204.999H313.841L320.39 182.364H329.679ZM347.567 214.618C344.313 214.618 341.512 213.959 339.164 212.641C336.83 211.309 335.031 209.428 333.768 206.997C332.504 204.553 331.873 201.663 331.873 198.326C331.873 195.072 332.504 192.216 333.768 189.758C335.031 187.3 336.809 185.384 339.102 184.011C341.409 182.638 344.114 181.952 347.217 181.952C349.304 181.952 351.247 182.288 353.046 182.961C354.859 183.62 356.438 184.616 357.783 185.947C359.143 187.279 360.2 188.955 360.955 190.973C361.71 192.978 362.088 195.326 362.088 198.017V200.427H335.374V194.989H353.829C353.829 193.726 353.554 192.607 353.005 191.632C352.456 190.657 351.694 189.895 350.719 189.346C349.758 188.783 348.638 188.501 347.362 188.501C346.03 188.501 344.849 188.81 343.819 189.428C342.803 190.032 342.006 190.849 341.43 191.879C340.853 192.895 340.558 194.028 340.544 195.278V200.447C340.544 202.013 340.832 203.365 341.409 204.505C342 205.645 342.83 206.523 343.901 207.141C344.972 207.759 346.242 208.068 347.712 208.068C348.687 208.068 349.579 207.931 350.389 207.656C351.199 207.382 351.893 206.97 352.469 206.42C353.046 205.871 353.486 205.198 353.788 204.402L361.903 204.938C361.491 206.887 360.646 208.59 359.369 210.045C358.106 211.487 356.472 212.613 354.467 213.423C352.476 214.22 350.176 214.618 347.567 214.618ZM367.814 214V182.364H376.32V187.884H376.65C377.227 185.92 378.195 184.437 379.554 183.435C380.913 182.419 382.479 181.911 384.25 181.911C384.689 181.911 385.163 181.938 385.671 181.993C386.179 182.048 386.625 182.123 387.01 182.219V190.005C386.598 189.881 386.028 189.772 385.3 189.675C384.573 189.579 383.907 189.531 383.303 189.531C382.012 189.531 380.858 189.813 379.842 190.376C378.84 190.925 378.044 191.694 377.453 192.683C376.876 193.671 376.588 194.811 376.588 196.102V214H367.814ZM397.926 225.864C396.814 225.864 395.77 225.774 394.795 225.596C393.834 225.431 393.038 225.218 392.406 224.957L394.384 218.408C395.413 218.723 396.34 218.895 397.164 218.923C398.002 218.95 398.723 218.758 399.327 218.346C399.945 217.934 400.446 217.234 400.83 216.245L401.345 214.906L389.996 182.364H399.224L405.773 205.597H406.103L412.714 182.364H422.004L409.707 217.419C409.117 219.122 408.314 220.605 407.298 221.868C406.295 223.145 405.025 224.127 403.487 224.813C401.949 225.513 400.096 225.864 397.926 225.864Z" fill="#212529"/>
<path d="M554 43.2355L547.172 27.3177L536.801 41.19L554 43.2355ZM353.44 91.4191C353.714 90.4783 354.002 89.5279 354.304 88.569L351.442 87.668C351.134 88.6476 350.84 89.6189 350.56 90.5809L353.44 91.4191ZM356.234 82.864C356.905 81.0094 357.626 79.1328 358.398 77.2414L355.62 76.1081C354.833 78.0369 354.097 79.9511 353.413 81.8435L356.234 82.864ZM360.783 71.7097C361.605 69.9034 362.472 68.0906 363.385 66.2772L360.706 64.928C359.775 66.7772 358.891 68.6257 358.053 70.4674L360.783 71.7097ZM366.2 60.9535C367.167 59.2117 368.176 57.4752 369.228 55.7494L366.667 54.1876C365.593 55.9492 364.563 57.7212 363.577 59.4981L366.2 60.9535ZM372.469 50.6779C373.58 49.0192 374.732 47.376 375.925 45.7534L373.508 43.9758C372.288 45.635 371.111 47.3144 369.976 49.0088L372.469 50.6779ZM379.598 40.9927C380.855 39.4401 382.152 37.9123 383.49 36.4143L381.253 34.4158C379.882 35.951 378.553 37.5159 377.266 39.1052L379.598 40.9927ZM387.603 32.0388C389.008 30.6199 390.452 29.2349 391.937 27.8883L389.922 25.6659C388.396 27.0498 386.913 28.4722 385.471 29.9283L387.603 32.0388ZM396.492 23.9867C398.041 22.7345 399.63 21.5245 401.26 20.3611L399.516 17.9197C397.837 19.1186 396.201 20.3647 394.606 21.6534L396.492 23.9867ZM406.235 17.0357C407.92 15.9845 409.644 14.9828 411.408 14.0351L409.988 11.3924C408.166 12.3715 406.386 13.4057 404.647 14.4904L406.235 17.0357ZM416.764 11.3822C418.566 10.5635 420.406 9.80034 422.285 9.09662L421.233 6.28722C419.289 7.01515 417.386 7.80444 415.523 8.65084L416.764 11.3822ZM427.952 7.19343C429.845 6.62913 431.776 6.12424 433.743 5.68244L433.086 2.75534C431.051 3.21229 429.054 3.73457 427.095 4.31837L427.952 7.19343ZM439.618 4.57122C441.558 4.27178 443.531 4.03258 445.539 3.85685L445.277 0.868272C443.204 1.04974 441.165 1.29684 439.16 1.60635L439.618 4.57122ZM451.504 3.52693C453.471 3.48042 455.47 3.4938 457.5 3.56985L457.613 0.571956C455.522 0.493637 453.462 0.479803 451.433 0.527763L451.504 3.52693ZM463.506 3.97144C465.45 4.1577 467.421 4.40044 469.42 4.70191L469.867 1.73546C467.815 1.42602 465.79 1.17662 463.792 0.98512L463.506 3.97144ZM475.327 5.74941C477.271 6.14521 479.242 6.59572 481.237 7.10288L481.976 4.19533C479.935 3.67652 477.918 3.21523 475.925 2.80966L475.327 5.74941ZM486.97 8.69681C488.86 9.26662 490.771 9.88644 492.705 10.5578L493.689 7.72386C491.717 7.03916 489.766 6.40654 487.837 5.82456L486.97 8.69681ZM498.366 12.6486C500.194 13.3632 502.041 14.1233 503.906 14.93L505.097 12.1764C503.2 11.3559 501.32 10.5824 499.459 9.85454L498.366 12.6486ZM509.46 17.4442C511.226 18.2793 513.009 19.1555 514.808 20.0739L516.172 17.4019C514.347 16.47 512.537 15.5803 510.742 14.7321L509.46 17.4442ZM520.223 22.9393C521.934 23.8766 523.659 24.8514 525.399 25.8647L526.909 23.2724C525.147 22.2461 523.398 21.2583 521.664 20.3082L520.223 22.9393ZM530.661 29.0206C532.324 30.0461 533.999 31.1061 535.687 32.2015L537.32 29.6849C535.613 28.5773 533.919 27.505 532.236 26.4673L530.661 29.0206ZM540.781 35.5886C542.407 36.6953 544.044 37.8342 545.693 39.0061L547.431 36.5609C545.766 35.3775 544.112 34.2269 542.47 33.1087L540.781 35.5886Z" fill="#66A661"/>
</svg>
